<?xml version="1.0" standalone="no"?>
<!DOCTYPE svg PUBLIC "-//W3C//DTD SVG 20010904//EN"
 "http://www.w3.org/TR/2001/REC-SVG-20010904/DTD/svg10.dtd">
<svg version="1.0" xmlns="http://www.w3.org/2000/svg"
 width="180.000000pt" height="180.000000pt" viewBox="0 0 180.000000 180.000000"
 preserveAspectRatio="xMidYMid meet">
<metadata>
Created by potrace 1.14, written by Peter Selinger 2001-2017
</metadata>
<g transform="translate(0.000000,180.000000) scale(0.100000,-0.100000)"
fill="#000000" stroke="none">
<path d="M545 1439 c-16 -5 -59 -14 -95 -20 -36 -5 -68 -13 -72 -17 -4 -5 -11
-30 -14 -56 l-7 -49 29 7 c16 3 44 9 63 13 l34 6 -6 -59 c-4 -32 -11 -84 -17
-114 -5 -30 -14 -75 -18 -100 -12 -68 -17 -73 -72 -66 -55 7 -66 -1 -72 -54
l-3 -35 173 -3 172 -2 10 25 c6 15 10 37 10 50 0 23 -3 24 -52 22 l-53 -2 2
40 c3 52 17 132 53 288 21 94 21 104 5 121 -18 18 -26 18 -70 5z"/>
<path d="M1413 1372 c-38 -42 -84 -95 -103 -117 -19 -22 -59 -64 -88 -95 l-53
-55 8 50 c28 176 -33 285 -158 285 -62 0 -111 -22 -159 -71 -120 -124 -145
-367 -48 -456 24 -22 86 -38 128 -34 64 6 147 67 189 137 10 18 12 18 29 -5
19 -23 22 -23 114 -16 62 4 98 3 102 -4 6 -8 2 -32 -15 -101 -3 -12 6 -14 51
-12 30 2 59 7 64 12 5 5 12 29 15 52 6 41 8 43 43 46 31 3 39 8 44 28 8 32 34
31 34 -1 0 -58 48 -114 113 -130 67 -17 77 -11 77 44 0 45 -2 49 -29 54 -63
13 -66 152 -5 274 26 51 34 80 34 120 0 46 -2 52 -17 46 -83 -31 -160 -155
-178 -285 l-6 -48 -40 0 -40 0 6 48 c4 26 10 61 15 77 20 72 41 208 33 215 -4
4 -27 10 -50 13 -43 5 -43 5 -110 -71z m-366 -59 c46 -69 -13 -283 -89 -324
-58 -31 -95 28 -83 134 18 155 121 268 172 190z m370 -163 l-14 -55 -47 -3
c-29 -2 -46 1 -46 8 0 6 26 43 58 82 51 64 57 69 60 47 2 -13 -3 -49 -11 -79z"/>
<path d="M75 1276 c-75 -18 -75 -18 -75 -103 0 -72 1 -75 18 -61 37 33 90 53
152 58 l65 5 6 45 c3 25 4 51 2 58 -6 16 -100 15 -168 -2z"/>
<path d="M13 1004 c-8 -4 -13 -26 -13 -60 l0 -54 35 0 c66 0 115 -53 115 -125
0 -70 -48 -119 -116 -119 l-34 0 0 -59 0 -59 53 4 c161 14 258 156 213 311
-20 69 -55 111 -115 139 -46 21 -115 32 -138 22z"/>
</g>
</svg>
